<svg xmlns="http://www.w3.org/2000/svg" viewBox="0 0 32 32" width="32" height="32"><rect width="32" height="32" rx="6" fill="#111"/><path d="M16.5 8c5.5 0 8.5 3.3 8.5 7.2 0 3.7-2.7 6-6.1 6-2.5 0-4.4-1.6-4.4-4.2 0-2.1 1.2-3.2 2.8-3.2 1.2 0 2 .7 2 1.6 0 .6-.3 1.1-.9 1.1-.4 0-.7-.2-.7-.7 0-.2.1-.4.4-.4.2 0 .3.1.3.3 0 .1-.1.2-.2.2m-2.2 4.2c0 2.4 2.1 3.8 4.4 3.8 2.7 0 4.1-1.7 4.1-4.2 0-3.3-2.8-5.6-7-5.6-4.2 0-7 2.3-7 5.6 0 3.2 2.8 5.6 7 5.6 1.6 0 3.2-.2 4.4-.6" fill="none" stroke="#fff" stroke-width="2" stroke-linecap="round" stroke-linejoin="round"/></svg>
