<svg xmlns="http://www.w3.org/2000/svg" viewBox="0 0 448 512"><linearGradient id="a" x1="0.5" x2="0.5" y2="1"><stop offset="0%" stop-color="#fdf497"/><stop offset="45%" stop-color="#fdf497"/><stop offset="60%" stop-color="#fd5949"/><stop offset="90%" stop-color="#d6249f"/><stop offset="100%" stop-color="#285AEB"/></linearGradient><rect width="448" height="512" rx="90" fill="url(#a)"/><path d="M224 144c-44.2 0-80 35.8-80 80s35.8 80 80 80 80-35.8 80-80-35.8-80-80-80zm0 132c-28.7 0-52-23.3-52-52s23.3-52 52-52 52 23.3 52 52-23.3 52-52 52zm85.7-136.3c0 10.5-8.5 19-19 19s-19-8.5-19-19 8.5-19 19-19 19 8.5 19 19zm48.1 19.6c-1-20.6-5.9-38.8-21.6-54.5S324.6 80.2 304 79.2c-20.6-1-81.2-1-101.8 0-20.6 1-38.8 5.9-54.5 21.6S80.2 123.4 79.2 144c-1 20.6-1 81.2 0 101.8 1 20.6 5.9 38.8 21.6 54.5s33.9 20.6 54.5 21.6c20.6 1 81.2 1 101.8 0 20.6-1 38.8-5.9 54.5-21.6s20.6-33.9 21.6-54.5c1-20.6 1-81.2 0-101.8zm-28.5 130c-7.8 19.6-22.9 34.7-42.5 42.5-29.4 11.7-99.2 9-132.8 0-19.6-7.8-34.7-22.9-42.5-42.5-11.7-29.4-9-99.2 0-132.8 7.8-19.6 22.9-34.7 42.5-42.5 29.4-11.7 99.2-9 132.8 0 19.6 7.8 34.7 22.9 42.5 42.5 11.7 29.4 9 99.2 0 132.8z" fill="#fff"/></svg>
