<?xml version="1.0" encoding="UTF-8" standalone="no" ?>
<!DOCTYPE svg PUBLIC "-//W3C//DTD SVG 1.1//EN" "http://www.w3.org/Graphics/SVG/1.1/DTD/svg11.dtd">
<svg xmlns="http://www.w3.org/2000/svg" xmlns:xlink="http://www.w3.org/1999/xlink" version="1.1" width="1280" height="1024" viewBox="0 0 1280 1024" xml:space="preserve">
<desc>Created with Fabric.js 4.4.0</desc>
<defs>
</defs>
<g transform="matrix(1 0 0 1 640 512)" id="background-logo"  >
<rect style="stroke: none; stroke-width: 0; stroke-dasharray: none; stroke-linecap: butt; stroke-dashoffset: 0; stroke-linejoin: miter; stroke-miterlimit: 4; fill: rgb(255,255,255); fill-opacity: 0; fill-rule: nonzero; opacity: 1;"  paint-order="stroke"  x="-640" y="-512" rx="0" ry="0" width="1280" height="1024" />
</g>
<g transform="matrix(1.7079047699914662 0 0 1.7079047699914665 261.0043750000001 512)" id="logo-logo"  >
<g style=""  paint-order="stroke"   >
		<g transform="matrix(0.1205430731717625 0 0 -0.1205430731717625 13.762764293239627 -36.868641373412856)"  >
<path style="stroke: none; stroke-width: 1; stroke-dasharray: none; stroke-linecap: butt; stroke-dashoffset: 0; stroke-linejoin: miter; stroke-miterlimit: 4; fill: rgb(63,81,172); fill-rule: nonzero; opacity: 1;"  paint-order="stroke"  transform=" translate(-841.538, -1150.3645000000001)" d="M 1198.55 1174.7 L 1390.92 1402.94 L 292.156 1402.94 L 292.156 897.789 L 1089.59 897.789 L 897.227 1123.04 L 520.508 1123.04 L 520.508 1174.7 L 1198.5500000000002 1174.7" stroke-linecap="round" />
</g>
		<g transform="matrix(0.1205430731717625 0 0 -0.1205430731717625 0 0)"  >
<path style="stroke: none; stroke-width: 1; stroke-dasharray: none; stroke-linecap: butt; stroke-dashoffset: 0; stroke-linejoin: miter; stroke-miterlimit: 4; fill: rgb(32,38,82); fill-rule: nonzero; opacity: 1;"  paint-order="stroke"  transform=" translate(-727.365, -844.51)" d="M 228.352 1463.89 L 1390.92 1463.89 L 1390.92 1689.02 L 0 1689.02 L 0 0 L 1454.73 0 L 1454.73 225.25 L 228.352 225.25 L 228.352 1463.89" stroke-linecap="round" />
</g>
		<g transform="matrix(0.1205430731717625 0 0 -0.1205430731717625 17.608691042784756 34.11206237612092)"  >
<path style="stroke: none; stroke-width: 1; stroke-dasharray: none; stroke-linecap: butt; stroke-dashoffset: 0; stroke-linejoin: miter; stroke-miterlimit: 4; fill: rgb(66,158,205); fill-rule: nonzero; opacity: 1;"  paint-order="stroke"  transform=" translate(-873.443, -561.5235)" d="M 520.508 517.418 L 520.508 605.629 L 897.227 605.629 L 1089.59 830.887 L 292.156 830.887 L 292.156 292.16 L 1454.73 292.16 L 1262.36 517.418 L 520.508 517.418" stroke-linecap="round" />
</g>
</g>
</g>
<g transform="matrix(1.9211538461538462 0 0 1.9211538461538462 820.2071125000002 508.4354143076923)" id="text-logo-path-group"  >
<g style=""  paint-order="stroke"   >
		<g transform="matrix(1 0 0 1 5.684342e-14 0)" id="text-logo-path-0"  >
<path style="stroke: none; stroke-width: 0; stroke-dasharray: none; stroke-linecap: butt; stroke-dashoffset: 0; stroke-linejoin: miter; stroke-miterlimit: 4; fill: rgb(32,38,82); fill-rule: nonzero; opacity: 1;"  paint-order="stroke"  transform=" translate(-184.89499999999998, 18.82)" d="M 19.82 0 L 2.38 0 Q 2.16 0 2.16 -0.27 L 2.16 -0.27 L 2.21 -37.37 Q 2.21 -37.58 2.43 -37.58 L 2.43 -37.58 L 19.76 -37.58 Q 19.98 -37.58 19.98 -37.31 L 19.98 -37.31 L 19.98 -31.27 Q 19.98 -31.05 19.76 -31.05 L 19.76 -31.05 L 8.69 -31.05 L 8.69 -22.63 L 19.76 -22.63 Q 19.98 -22.63 19.98 -22.41 L 19.98 -22.41 L 20.03 -16.31 Q 20.03 -16.09 19.82 -16.09 L 19.82 -16.09 L 8.69 -16.09 L 8.69 -6.64 L 19.82 -6.64 Q 20.03 -6.64 20.03 -6.37 L 20.03 -6.37 L 20.03 -0.22 Q 20.03 0 19.82 0 L 19.82 0 Z M 36.29 0 L 30.89 0 Q 30.46 0 30.46 -0.38 L 30.46 -0.38 L 30.4 -37.15 Q 30.4 -37.58 30.83 -37.58 L 30.83 -37.58 L 35.69 -37.58 L 44.82 -16.31 L 44.55 -37.15 Q 44.55 -37.58 45.04 -37.58 L 45.04 -37.58 L 50.38 -37.58 Q 50.71 -37.58 50.71 -37.15 L 50.71 -37.15 L 50.76 -0.32 Q 50.76 0 50.49 0 L 50.49 0 L 45.74 0 L 36.4 -19.87 L 36.77 -0.43 Q 36.77 0 36.29 0 L 36.29 0 Z M 70.96 0.54 L 70.96 0.54 Q 67.99 0.54 65.58 -0.94 Q 63.18 -2.43 61.78 -4.91 Q 60.37 -7.4 60.37 -10.48 L 60.37 -10.48 L 60.43 -27.32 Q 60.43 -30.29 61.8 -32.75 Q 63.18 -35.21 65.58 -36.69 Q 67.99 -38.18 70.96 -38.18 L 70.96 -38.18 Q 73.93 -38.18 76.3 -36.72 Q 78.68 -35.26 80.08 -32.8 Q 81.49 -30.35 81.49 -27.32 L 81.49 -27.32 L 81.49 -24.84 Q 81.49 -24.62 81.27 -24.62 L 81.27 -24.62 L 75.22 -24.62 Q 75.01 -24.62 75.01 -24.84 L 75.01 -24.84 L 75.01 -27.32 Q 75.01 -29.11 73.84 -30.4 Q 72.68 -31.7 70.96 -31.7 L 70.96 -31.7 Q 69.01 -31.7 67.99 -30.38 Q 66.96 -29.05 66.96 -27.32 L 66.96 -27.32 L 66.96 -10.48 Q 66.96 -8.48 68.12 -7.24 Q 69.28 -5.99 70.96 -5.99 L 70.96 -5.99 Q 72.68 -5.99 73.84 -7.37 Q 75.01 -8.75 75.01 -10.48 L 75.01 -10.48 L 75.01 -12.96 Q 75.01 -13.18 75.22 -13.18 L 75.22 -13.18 L 81.32 -13.18 Q 81.54 -13.18 81.54 -12.96 L 81.54 -12.96 L 81.54 -10.48 Q 81.54 -7.4 80.11 -4.91 Q 78.68 -2.43 76.3 -0.94 Q 73.93 0.54 70.96 0.54 Z M 101.03 0.54 L 101.03 0.54 Q 98.12 0.54 95.72 -0.94 Q 93.31 -2.43 91.85 -4.89 Q 90.4 -7.34 90.4 -10.31 L 90.4 -10.31 L 90.45 -27.43 Q 90.45 -30.4 91.88 -32.83 Q 93.31 -35.26 95.74 -36.72 Q 98.17 -38.18 101.03 -38.18 L 101.03 -38.18 Q 103.95 -38.18 106.33 -36.72 Q 108.7 -35.26 110.13 -32.83 Q 111.56 -30.4 111.56 -27.43 L 111.56 -27.43 L 111.62 -10.31 Q 111.62 -7.34 110.19 -4.89 Q 108.76 -2.43 106.35 -0.94 Q 103.95 0.54 101.03 0.54 Z M 101.03 -5.99 L 101.03 -5.99 Q 102.65 -5.99 103.87 -7.32 Q 105.08 -8.64 105.08 -10.31 L 105.08 -10.31 L 105.03 -27.43 Q 105.03 -29.21 103.9 -30.46 Q 102.76 -31.7 101.03 -31.7 L 101.03 -31.7 Q 99.36 -31.7 98.17 -30.48 Q 96.98 -29.27 96.98 -27.43 L 96.98 -27.43 L 96.98 -10.31 Q 96.98 -8.53 98.17 -7.26 Q 99.36 -5.99 101.03 -5.99 Z M 127.6 0 L 121.5 0 Q 121.28 0 121.28 -0.27 L 121.28 -0.27 L 121.39 -37.37 Q 121.39 -37.58 121.61 -37.58 L 121.61 -37.58 L 128.2 -37.58 Q 128.41 -37.58 128.57 -37.37 L 128.57 -37.37 L 133.49 -30.24 L 138.4 -37.37 Q 138.56 -37.58 138.78 -37.58 L 138.78 -37.58 L 145.42 -37.58 Q 145.64 -37.58 145.64 -37.37 L 145.64 -37.37 L 145.75 -0.27 Q 145.75 0 145.53 0 L 145.53 0 L 139.43 0 Q 139.21 0 139.21 -0.27 L 139.21 -0.27 L 139.16 -27.81 L 133.49 -19.6 L 127.87 -27.81 L 127.82 -0.27 Q 127.82 0 127.6 0 L 127.6 0 Z M 162.16 0 L 156.11 0 Q 155.84 0 155.84 -0.27 L 155.84 -0.27 L 155.95 -37.37 Q 155.95 -37.58 156.17 -37.58 L 156.17 -37.58 L 166.54 -37.58 Q 171.5 -37.58 174.39 -34.56 Q 177.28 -31.54 177.28 -26.35 L 177.28 -26.35 Q 177.28 -22.52 175.77 -19.71 Q 174.26 -16.9 171.83 -15.39 Q 169.4 -13.88 166.54 -13.88 L 166.54 -13.88 L 162.43 -13.88 L 162.43 -0.27 Q 162.43 0 162.16 0 L 162.16 0 Z M 162.43 -31.1 L 162.43 -20.41 L 166.54 -20.41 Q 168.26 -20.41 169.53 -22.06 Q 170.8 -23.71 170.8 -26.35 L 170.8 -26.35 Q 170.8 -28.46 169.67 -29.81 Q 168.53 -31.16 166.54 -31.16 L 166.54 -31.16 L 162.43 -31.1 Z M 181.98 -0.27 L 181.98 -0.27 L 188.68 -37.37 Q 188.73 -37.58 188.95 -37.58 L 188.95 -37.58 L 196.78 -37.58 Q 196.99 -37.58 197.05 -37.37 L 197.05 -37.37 L 203.47 -0.27 Q 203.53 0 203.26 0 L 203.26 0 L 197.26 0 Q 197.05 0 196.99 -0.27 L 196.99 -0.27 L 196.4 -4.21 L 189.05 -4.21 L 188.46 -0.27 Q 188.41 0 188.19 0 L 188.19 0 L 182.2 0 Q 181.98 0 181.98 -0.27 Z M 192.56 -25.16 L 190.13 -9.99 L 195.32 -9.99 L 193.1 -25.16 L 192.78 -27.16 L 192.56 -25.16 Z M 220.54 0.54 L 220.54 0.54 Q 217.62 0.54 215.22 -0.94 Q 212.81 -2.43 211.38 -4.89 Q 209.95 -7.34 209.95 -10.31 L 209.95 -10.31 L 209.95 -12.8 Q 209.95 -13.07 210.22 -13.07 L 210.22 -13.07 L 216.27 -13.07 Q 216.49 -13.07 216.49 -12.8 L 216.49 -12.8 L 216.49 -10.31 Q 216.49 -8.53 217.67 -7.26 Q 218.86 -5.99 220.54 -5.99 L 220.54 -5.99 Q 222.21 -5.99 223.4 -7.29 Q 224.59 -8.59 224.59 -10.31 L 224.59 -10.31 Q 224.59 -12.31 221.99 -13.77 L 221.99 -13.77 Q 221.13 -14.26 219.29 -15.28 Q 217.46 -16.31 215.84 -17.23 L 215.84 -17.23 Q 212.87 -18.95 211.44 -21.57 Q 210.01 -24.19 210.01 -27.49 L 210.01 -27.49 Q 210.01 -30.51 211.46 -32.91 Q 212.92 -35.32 215.32 -36.72 Q 217.73 -38.12 220.54 -38.12 L 220.54 -38.12 Q 223.4 -38.12 225.8 -36.69 Q 228.2 -35.26 229.63 -32.86 Q 231.07 -30.46 231.07 -27.49 L 231.07 -27.49 L 231.07 -23.06 Q 231.07 -22.84 230.85 -22.84 L 230.85 -22.84 L 224.8 -22.84 Q 224.59 -22.84 224.59 -23.06 L 224.59 -23.06 L 224.53 -27.49 Q 224.53 -29.38 223.34 -30.56 Q 222.16 -31.75 220.54 -31.75 L 220.54 -31.75 Q 218.86 -31.75 217.67 -30.48 Q 216.49 -29.21 216.49 -27.49 L 216.49 -27.49 Q 216.49 -25.7 217.24 -24.52 Q 218 -23.33 220 -22.25 L 220 -22.25 Q 220.27 -22.09 221.05 -21.68 Q 221.83 -21.28 222.75 -20.76 Q 223.67 -20.25 224.4 -19.87 Q 225.13 -19.49 225.29 -19.39 L 225.29 -19.39 Q 227.99 -17.87 229.55 -15.69 Q 231.12 -13.5 231.12 -10.31 L 231.12 -10.31 Q 231.12 -7.24 229.69 -4.78 Q 228.26 -2.32 225.85 -0.89 Q 223.45 0.54 220.54 0.54 Z M 249.05 0.54 L 249.05 0.54 Q 246.13 0.54 243.73 -0.94 Q 241.33 -2.43 239.9 -4.89 Q 238.46 -7.34 238.46 -10.31 L 238.46 -10.31 L 238.46 -12.8 Q 238.46 -13.07 238.73 -13.07 L 238.73 -13.07 L 244.78 -13.07 Q 245 -13.07 245 -12.8 L 245 -12.8 L 245 -10.31 Q 245 -8.53 246.19 -7.26 Q 247.37 -5.99 249.05 -5.99 L 249.05 -5.99 Q 250.72 -5.99 251.91 -7.29 Q 253.1 -8.59 253.1 -10.31 L 253.1 -10.31 Q 253.1 -12.31 250.51 -13.77 L 250.51 -13.77 Q 249.64 -14.26 247.81 -15.28 Q 245.97 -16.31 244.35 -17.23 L 244.35 -17.23 Q 241.38 -18.95 239.95 -21.57 Q 238.52 -24.19 238.52 -27.49 L 238.52 -27.49 Q 238.52 -30.51 239.98 -32.91 Q 241.43 -35.32 243.84 -36.72 Q 246.24 -38.12 249.05 -38.12 L 249.05 -38.12 Q 251.91 -38.12 254.31 -36.69 Q 256.72 -35.26 258.15 -32.86 Q 259.58 -30.46 259.58 -27.49 L 259.58 -27.49 L 259.58 -23.06 Q 259.58 -22.84 259.36 -22.84 L 259.36 -22.84 L 253.31 -22.84 Q 253.1 -22.84 253.1 -23.06 L 253.1 -23.06 L 253.04 -27.49 Q 253.04 -29.38 251.86 -30.56 Q 250.67 -31.75 249.05 -31.75 L 249.05 -31.75 Q 247.37 -31.75 246.19 -30.48 Q 245 -29.21 245 -27.49 L 245 -27.49 Q 245 -25.7 245.75 -24.52 Q 246.51 -23.33 248.51 -22.25 L 248.51 -22.25 Q 248.78 -22.09 249.56 -21.68 Q 250.34 -21.28 251.26 -20.76 Q 252.18 -20.25 252.91 -19.87 Q 253.64 -19.49 253.8 -19.39 L 253.8 -19.39 Q 256.5 -17.87 258.07 -15.69 Q 259.63 -13.5 259.63 -10.31 L 259.63 -10.31 Q 259.63 -7.24 258.2 -4.78 Q 256.77 -2.32 254.37 -0.89 Q 251.96 0.54 249.05 0.54 Z M 288.85 0 L 282.74 0 Q 282.53 0 282.53 -0.27 L 282.53 -0.27 L 282.64 -37.37 Q 282.64 -37.58 282.85 -37.58 L 282.85 -37.58 L 289.44 -37.58 Q 289.66 -37.58 289.82 -37.37 L 289.82 -37.37 L 294.73 -30.24 L 299.65 -37.37 Q 299.81 -37.58 300.02 -37.58 L 300.02 -37.58 L 306.67 -37.58 Q 306.88 -37.58 306.88 -37.37 L 306.88 -37.37 L 306.99 -0.27 Q 306.99 0 306.77 0 L 306.77 0 L 300.67 0 Q 300.46 0 300.46 -0.27 L 300.46 -0.27 L 300.4 -27.81 L 294.73 -19.6 L 289.12 -27.81 L 289.06 -0.27 Q 289.06 0 288.85 0 L 288.85 0 Z M 326.27 0.54 L 326.27 0.54 Q 323.35 0.54 320.95 -0.94 Q 318.55 -2.43 317.12 -4.89 Q 315.68 -7.34 315.68 -10.31 L 315.68 -10.31 L 315.68 -12.8 Q 315.68 -13.07 315.95 -13.07 L 315.95 -13.07 L 322 -13.07 Q 322.22 -13.07 322.22 -12.8 L 322.22 -12.8 L 322.22 -10.31 Q 322.22 -8.53 323.41 -7.26 Q 324.59 -5.99 326.27 -5.99 L 326.27 -5.99 Q 327.94 -5.99 329.13 -7.29 Q 330.32 -8.59 330.32 -10.31 L 330.32 -10.31 Q 330.32 -12.31 327.73 -13.77 L 327.73 -13.77 Q 326.86 -14.26 325.03 -15.28 Q 323.19 -16.31 321.57 -17.23 L 321.57 -17.23 Q 318.6 -18.95 317.17 -21.57 Q 315.74 -24.19 315.74 -27.49 L 315.74 -27.49 Q 315.74 -30.51 317.2 -32.91 Q 318.65 -35.32 321.06 -36.72 Q 323.46 -38.12 326.27 -38.12 L 326.27 -38.12 Q 329.13 -38.12 331.53 -36.69 Q 333.94 -35.26 335.37 -32.86 Q 336.8 -30.46 336.8 -27.49 L 336.8 -27.49 L 336.8 -23.06 Q 336.8 -22.84 336.58 -22.84 L 336.58 -22.84 L 330.53 -22.84 Q 330.32 -22.84 330.32 -23.06 L 330.32 -23.06 L 330.26 -27.49 Q 330.26 -29.38 329.08 -30.56 Q 327.89 -31.75 326.27 -31.75 L 326.27 -31.75 Q 324.59 -31.75 323.41 -30.48 Q 322.22 -29.21 322.22 -27.49 L 322.22 -27.49 Q 322.22 -25.7 322.97 -24.52 Q 323.73 -23.33 325.73 -22.25 L 325.73 -22.25 Q 326 -22.09 326.78 -21.68 Q 327.56 -21.28 328.48 -20.76 Q 329.4 -20.25 330.13 -19.87 Q 330.86 -19.49 331.02 -19.39 L 331.02 -19.39 Q 333.72 -17.87 335.29 -15.69 Q 336.85 -13.5 336.85 -10.31 L 336.85 -10.31 Q 336.85 -7.24 335.42 -4.78 Q 333.99 -2.32 331.59 -0.89 Q 329.18 0.54 326.27 0.54 Z M 352.51 0 L 346.46 0 Q 346.19 0 346.19 -0.27 L 346.19 -0.27 L 346.3 -37.37 Q 346.3 -37.58 346.52 -37.58 L 346.52 -37.58 L 356.89 -37.58 Q 361.85 -37.58 364.74 -34.56 Q 367.63 -31.54 367.63 -26.35 L 367.63 -26.35 Q 367.63 -22.52 366.12 -19.71 Q 364.61 -16.9 362.18 -15.39 Q 359.75 -13.88 356.89 -13.88 L 356.89 -13.88 L 352.78 -13.88 L 352.78 -0.27 Q 352.78 0 352.51 0 L 352.51 0 Z M 352.78 -31.1 L 352.78 -20.41 L 356.89 -20.41 Q 358.61 -20.41 359.88 -22.06 Q 361.15 -23.71 361.15 -26.35 L 361.15 -26.35 Q 361.15 -28.46 360.02 -29.81 Q 358.88 -31.16 356.89 -31.16 L 356.89 -31.16 L 352.78 -31.1 Z" stroke-linecap="round" />
</g>
</g>
</g>
</svg>