<svg xmlns="http://www.w3.org/2000/svg" viewBox="0 0 256 256"><g><circle cx="128" cy="128" r="128" fill="#000"/><path d="M128 44c-46.3 0-84 37.7-84 84s37.7 84 84 84 84-37.7 84-84-37.7-84-84-84zm0 152c-37.5 0-68-30.5-68-68s30.5-68 68-68 68 30.5 68 68-30.5 68-68 68zm22.8-67.8c-6.1-2.1-12.6-3.2-19.3-3.2-6.7 0-13.2 1.1-19.3 3.2-9.1 3.1-17.2 8.1-23.7 14.6-6.5 6.5-11.5 14.6-14.6 23.7-2.1 6.1-3.2 12.6-3.2 19.3s1.1 13.2 3.2 19.3c3.1 9.1 8.1 17.2 14.6 23.7 6.5 6.5 14.6 11.5 23.7 14.6 6.1 2.1 12.6 3.2 19.3 3.2 6.7 0 13.2-1.1 19.3-3.2 9.1-3.1 17.2-8.1 23.7-14.6 6.5-6.5 11.5-14.6 14.6-23.7 2.1-6.1 3.2-12.6 3.2-19.3s-1.1-13.2-3.2-19.3c-3.1-9.1-8.1-17.2-14.6-23.7-6.5-6.5-14.6-11.5-23.7-14.6zm-22.8 60c-13.2 0-24-10.8-24-24s10.8-24 24-24 24 10.8 24 24-10.8 24-24 24z" fill="#fff"/></g></svg>
