<svg xmlns="http://www.w3.org/2000/svg" viewBox="0 0 48 48"><g><circle cx="24" cy="24" r="24" fill="#000"/><path d="M34.7 21.3c-2.5 0-4.5-2-4.5-4.5V8.6h-4.1v21.9c0 2-1.6 3.6-3.6 3.6s-3.6-1.6-3.6-3.6c0-2 1.6-3.6 3.6-3.6.3 0 .6 0 .8.1v-4.2c-.3 0-.6-.1-.8-.1-4.3 0-7.8 3.5-7.8 7.8s3.5 7.8 7.8 7.8 7.8-3.5 7.8-7.8V24c1.3 1.1 3 1.8 4.8 1.8v-4.5z" fill="#fff"/><path d="M34.7 21.3v4.5c-1.8 0-3.5-.7-4.8-1.8v3.3c0 4.3-3.5 7.8-7.8 7.8s-7.8-3.5-7.8-7.8 3.5-7.8 7.8-7.8c.3 0 .6 0 .8.1v4.2c-.3 0-.6-.1-.8-.1-2 0-3.6 1.6-3.6 3.6 0 2 1.6 3.6 3.6 3.6s3.6-1.6 3.6-3.6V8.6h4.1v8.2c0 2.5 2 4.5 4.5 4.5z" fill="#25F4EE"/><path d="M34.7 21.3v4.5c-1.8 0-3.5-.7-4.8-1.8v3.3c0 4.3-3.5 7.8-7.8 7.8s-7.8-3.5-7.8-7.8 3.5-7.8 7.8-7.8c.3 0 .6 0 .8.1v4.2c-.3 0-.6-.1-.8-.1-2 0-3.6 1.6-3.6 3.6 0 2 1.6 3.6 3.6 3.6s3.6-1.6 3.6-3.6V8.6h4.1v8.2c0 2.5 2 4.5 4.5 4.5z" fill="#FE2C55"/></g></svg>
